<svg width="1441" height="1095" viewBox="0 0 1441 1095" fill="none" xmlns="http://www.w3.org/2000/svg">
<path d="M210.601 984.186C491.394 1131 946.659 1131 1227.45 984.186C1508.25 837.371 1508.25 599.666 1227.45 452.987C946.659 306.308 491.394 306.172 210.601 452.987C-70.1924 599.803 -70.1924 837.473 210.601 984.186Z" fill="#F5F5F5"/>
<path d="M365.713 309.415L433.385 270.356L365.713 231.296L297.427 270.356L365.713 309.415Z" stroke="#EBEBEB" stroke-width="1.08419" stroke-linecap="round" stroke-linejoin="round"/>
<path d="M313.167 270.389L365.747 118.418V300.742L313.167 270.389Z" fill="#E0E0E0"/>
<path d="M365.747 300.742L418.293 270.389L365.747 118.418V300.742Z" fill="#E6E6E6"/>
<path d="M283.019 357.079L350.69 318.019L283.019 278.959L214.732 318.019L283.019 357.079Z" stroke="#EBEBEB" stroke-width="1.08419" stroke-linecap="round" stroke-linejoin="round"/>
<path d="M230.472 318.053L283.018 92.3672V348.407L230.472 318.053Z" fill="#E0E0E0"/>
<path d="M283.019 348.407L335.565 318.053L283.019 92.3672V348.407Z" fill="#E6E6E6"/>
<path d="M200.323 404.743L267.995 365.683L200.323 326.623L132.003 365.683L200.323 404.743Z" stroke="#EBEBEB" stroke-width="1.08419" stroke-linecap="round" stroke-linejoin="round"/>
<path d="M147.777 365.717L200.324 231.296V396.071L147.777 365.717Z" fill="#E0E0E0"/>
<path d="M200.323 396.071L252.87 365.717L200.323 231.296V396.071Z" fill="#E6E6E6"/>
<path d="M117.629 452.407L185.301 413.347L117.629 374.287L49.3086 413.347L117.629 452.407Z" stroke="#EBEBEB" stroke-width="1.08419" stroke-linecap="round" stroke-linejoin="round"/>
<path d="M65.0488 413.381L117.629 185.168V443.734L65.0488 413.381Z" fill="#E0E0E0"/>
<path d="M117.629 443.734L170.175 413.381L117.629 185.168V443.734Z" fill="#E6E6E6"/>
<path d="M1019.52 257.483L1380.41 465.825" stroke="#EBEBEB" stroke-width="1.08419" stroke-miterlimit="10" stroke-linecap="round"/>
<path d="M1380.41 443.735C1379.98 417.581 1378.14 391.47 1374.92 365.513C1371.5 337.31 1364.67 289.715 1337.53 274.009C1310.39 258.303 1300.14 286.71 1296.22 300.675C1291.09 318.805 1264.5 307.333 1260.81 277.457C1257.12 247.582 1254.7 152.391 1222.81 134.056C1190.92 115.721 1180.64 159.937 1177.02 172.297C1169.89 196.572 1148.96 189.88 1142.13 173.799C1135.3 157.717 1116.66 153.791 1109.62 176.428C1102.59 199.065 1098.25 225.048 1075.48 211.698C1055.47 199.987 1064.66 178.647 1045.16 168.507C1029.73 160.517 1022.56 198.621 1022.56 237.169L1380.41 443.735Z" fill="#E0E0E0"/>
<path d="M1354.19 245.055C1354.19 249.22 1350.44 250.415 1345.86 247.786L1318.55 231.944C1316.3 230.671 1314.38 228.896 1312.93 226.758C1311.49 224.62 1310.56 222.176 1310.21 219.618C1310.21 215.487 1313.97 214.258 1318.55 216.921L1345.86 232.763C1348.1 234.028 1350.03 235.797 1351.47 237.93C1352.92 240.062 1353.85 242.501 1354.19 245.055Z" fill="#E6E6E6"/>
<path d="M1242.07 111.111C1242.07 115.277 1238.34 116.472 1233.73 113.843L1206.42 98.0005C1204.17 96.7339 1202.24 94.9607 1200.8 92.8213C1199.35 90.6819 1198.43 88.2351 1198.09 85.6748C1198.09 81.5435 1201.81 80.3143 1206.42 82.9775L1233.73 98.8199C1235.98 100.081 1237.91 101.848 1239.35 103.982C1240.8 106.115 1241.73 108.556 1242.07 111.111Z" fill="#E6E6E6"/>
<path d="M1153.26 135.763C1153.26 139.928 1149.54 141.123 1144.96 138.494L1117.65 122.652C1115.4 121.385 1113.47 119.612 1112.03 117.473C1110.58 115.333 1109.65 112.886 1109.32 110.326C1109.32 106.195 1113.04 104.966 1117.65 107.629L1144.96 123.471C1147.2 124.738 1149.12 126.508 1150.56 128.641C1152 130.774 1152.92 133.212 1153.26 135.763Z" fill="#E6E6E6"/>
<path d="M1069.06 143.923C1069.06 148.088 1065.34 149.283 1060.73 146.62L1033.42 130.812C1031.18 129.537 1029.26 127.761 1027.82 125.623C1026.38 123.485 1025.46 121.042 1025.12 118.486C1025.12 114.355 1028.84 113.126 1033.42 115.789L1060.73 131.597C1062.98 132.868 1064.9 134.642 1066.35 136.781C1067.79 138.92 1068.72 141.364 1069.06 143.923Z" fill="#E6E6E6"/>
<path d="M1004.5 226.72V1" stroke="#EBEBEB" stroke-width="1.08419" stroke-miterlimit="10" stroke-linecap="round"/>
<path d="M129.716 725.996C129.716 725.996 135.315 675.874 119.78 628.142C105.167 583.005 75.8036 559.07 58.015 551.9C24.384 538.482 21.3794 575.527 46.5771 601.169C65.0485 620.016 109.503 658.871 117.151 724.767L129.716 725.996Z" fill="#236E9D"/>
<path opacity="0.7" d="M129.716 725.996C129.716 725.996 135.315 675.874 119.78 628.142C105.167 583.005 75.8036 559.07 58.015 551.9C24.384 538.482 21.3794 575.527 46.5771 601.169C65.0485 620.016 109.503 658.871 117.151 724.767L129.716 725.996Z" fill="white"/>
<path d="M48.9326 562.245C69.2478 575.902 123.843 615.338 125.823 725.62" stroke="#FAFAFA" stroke-width="1.08419" stroke-miterlimit="10" stroke-linecap="round"/>
<path d="M115.41 760.241C104.962 709.71 83.6224 691.375 45.4845 671.845C29.1641 663.514 10.0439 654.227 3.14699 643.608C-3.74992 632.99 -0.267318 618.718 23.2232 619.025C66.1411 619.606 115.034 671.333 121.555 728.01L115.41 760.241Z" fill="#236E9D"/>
<path opacity="0.8" d="M115.41 760.241C104.962 709.71 83.6224 691.375 45.4845 671.845C29.1641 663.514 10.0439 654.227 3.14699 643.608C-3.74992 632.99 -0.267318 618.718 23.2232 619.025C66.1411 619.606 115.034 671.333 121.555 728.01L115.41 760.241Z" fill="white"/>
<path d="M19.6035 630.02C52.0054 634.424 103.186 672.186 119.438 739.278" stroke="#FAFAFA" stroke-width="1.08419" stroke-miterlimit="10" stroke-linecap="round"/>
<path d="M1312.43 702.335C1325.58 677.069 1335.79 606.187 1318.89 573.41C1301.99 540.633 1276.86 543.262 1272.96 553.88C1269.55 563.679 1277.98 581.195 1288.91 602.056C1299.84 622.918 1309.05 667.611 1298.71 688.438L1312.43 702.335Z" fill="#236E9D"/>
<path opacity="0.7" d="M1312.43 702.335C1325.58 677.069 1335.79 606.187 1318.89 573.41C1301.99 540.633 1276.86 543.262 1272.96 553.88C1269.55 563.679 1277.98 581.195 1288.91 602.056C1299.84 622.918 1309.05 667.611 1298.71 688.438L1312.43 702.335Z" fill="white"/>
<path d="M1289.56 555.587C1300.31 564.225 1331.11 617.045 1309.57 689.531" stroke="#FAFAFA" stroke-width="1.08419" stroke-miterlimit="10" stroke-linecap="round"/>
<path d="M1308.27 729.103C1300.35 713.26 1283 687.038 1294.82 669.045C1306.63 651.051 1318.99 666.962 1328.48 655.217C1337.97 643.471 1327.12 624.488 1335.31 614.245C1351.15 594.1 1362.62 617.489 1375.05 614.416C1384.03 612.196 1394.04 592.291 1419.88 594.715C1445.73 597.139 1444.43 617.625 1432.93 627.253C1421.42 636.882 1407.76 646.476 1416.64 660.919C1424.49 673.722 1428.55 697.384 1401.68 706.568C1376.01 715.343 1388.71 726.474 1384.61 739.038C1380.52 751.603 1356.27 763.519 1330.5 753.822L1308.27 729.103Z" fill="#236E9D"/>
<path opacity="0.8" d="M1308.27 729.103C1300.35 713.26 1283 687.038 1294.82 669.045C1306.63 651.051 1318.99 666.962 1328.48 655.217C1337.97 643.471 1327.12 624.488 1335.31 614.245C1351.15 594.1 1362.62 617.489 1375.05 614.416C1384.03 612.196 1394.04 592.291 1419.88 594.715C1445.73 597.139 1444.43 617.625 1432.93 627.253C1421.42 636.882 1407.76 646.476 1416.64 660.919C1424.49 673.722 1428.55 697.384 1401.68 706.568C1376.01 715.343 1388.71 726.474 1384.61 739.038C1380.52 751.603 1356.27 763.519 1330.5 753.822L1308.27 729.103Z" fill="white"/>
<path d="M1423.43 606.324C1395.44 613.836 1328.38 668.328 1322.71 736.717" stroke="#FAFAFA" stroke-width="1.08419" stroke-miterlimit="10" stroke-linecap="round"/>
<path d="M1403.25 678.127C1389.43 674.986 1354.29 674.542 1341.15 680.927" stroke="#FAFAFA" stroke-width="1.08419" stroke-miterlimit="10" stroke-linecap="round"/>
<path d="M1348.97 620.255C1348.97 620.255 1359.21 640.092 1357.74 656.788" stroke="#FAFAFA" stroke-width="1.08419" stroke-miterlimit="10" stroke-linecap="round"/>
<path d="M967.043 426.493C962.466 410.647 954.286 396.075 943.142 383.916C929.972 369.554 914.569 357.414 897.527 347.963C877.739 336.754 856.698 327.918 834.84 321.639C810.762 314.689 786.061 310.115 761.091 307.982C735.299 305.626 709.345 305.626 683.552 307.982C658.593 310.115 633.903 314.689 609.837 321.639C587.966 327.912 566.913 336.748 547.116 347.963C530.074 357.496 514.682 369.717 501.535 384.155C490.401 396.322 482.223 410.891 477.635 426.732C473.555 441.385 473.555 456.874 477.635 471.528C482.186 487.373 490.37 501.94 501.535 514.07C514.691 528.521 530.095 540.754 547.15 550.296C566.923 561.502 587.954 570.327 609.803 576.586C633.88 583.566 658.58 588.186 683.552 590.38C709.346 592.702 735.297 592.702 761.091 590.38C786.076 588.177 810.787 583.546 834.874 576.552C856.723 570.293 877.754 561.468 897.527 550.262C914.589 540.729 929.993 528.495 943.142 514.036C954.292 501.894 962.474 487.332 967.043 471.493C971.127 456.771 971.127 441.215 967.043 426.493Z" fill="#37474F"/>
<path d="M474.562 426.561H970.081V451.826L474.562 450.427V426.561Z" fill="#37474F"/>
<path d="M683.552 285.345L722.27 426.492L609.837 299.139C633.899 292.142 658.589 287.522 683.552 285.345Z" fill="#455A64"/>
<path d="M761.091 285.344L722.373 426.492L683.654 285.276C709.415 282.949 735.334 282.972 761.091 285.344Z" fill="#455A64"/>
<path d="M834.841 299.138L722.373 426.492L761.091 285.276C786.068 287.477 810.769 292.119 834.841 299.138Z" fill="#455A64"/>
<path d="M943.109 361.62C954.246 373.797 962.424 388.378 967.009 404.231L722.407 426.492L943.109 361.62Z" fill="#455A64"/>
<path d="M967.043 404.265C971.088 418.911 971.088 434.38 967.043 449.026L722.407 426.492L967.043 404.265Z" fill="#455A64"/>
<path d="M967.043 449.027C962.467 464.873 954.287 479.445 943.143 491.603L722.407 426.731L967.043 449.027Z" fill="#455A64"/>
<path d="M943.143 491.603C929.991 506.05 914.586 518.272 897.527 527.795L722.339 426.492L943.143 491.603Z" fill="#455A64"/>
<path d="M722.373 426.663L834.875 554.119C810.786 561.072 786.073 565.646 761.091 567.777L722.339 426.561L722.373 426.663Z" fill="#455A64"/>
<path d="M722.338 426.697L761.091 567.913C735.298 570.269 709.344 570.269 683.552 567.913L722.338 426.697Z" fill="#455A64"/>
<path d="M722.27 426.663L683.484 567.879C658.502 565.749 633.789 561.175 609.7 554.222L722.27 426.663Z" fill="#455A64"/>
<path d="M722.27 426.663L609.598 554.119C587.753 547.834 566.724 538.998 546.945 527.795L722.27 426.663Z" fill="#455A64"/>
<path d="M722.236 426.492L501.501 491.364C490.341 479.217 482.159 464.641 477.601 448.788L722.236 426.492Z" fill="#455A64"/>
<path d="M722.236 426.492L477.634 449.026C473.554 434.385 473.554 418.906 477.634 404.265L722.236 426.492Z" fill="#455A64"/>
<path d="M722.236 426.492L477.635 404.128C482.23 388.28 490.407 373.701 501.535 361.518L722.236 426.492Z" fill="#455A64"/>
<path d="M547.116 325.497L722.236 426.492L501.535 361.621C514.687 347.206 530.078 335.008 547.116 325.497Z" fill="#455A64"/>
<path d="M897.527 325.497L722.373 426.493L834.841 299.07C856.708 305.368 877.751 314.239 897.527 325.497Z" fill="#455A64"/>
<path d="M897.527 325.497C914.571 334.999 929.964 347.198 943.109 361.621L722.407 426.492L897.527 325.497Z" fill="#455A64"/>
<path d="M722.271 426.492L547.048 527.658C529.994 518.128 514.591 505.907 501.433 491.467L722.168 426.595L722.271 426.492Z" fill="#455A64"/>
<path d="M609.837 299.139L722.271 426.493L547.116 325.361C566.911 314.168 587.966 305.365 609.837 299.139Z" fill="#455A64"/>
<path d="M722.373 426.663L897.527 527.795C877.749 538.998 856.72 547.834 834.875 554.119L722.373 426.663Z" fill="#455A64"/>
<path d="M572.484 284.047L711.618 364.352L704.789 250.826C653.608 253.011 610.144 263.937 572.484 284.047Z" fill="#236E9D"/>
<path opacity="0.2" d="M572.484 284.047L711.618 364.352L704.789 250.826C653.608 253.011 610.144 263.937 572.484 284.047Z" fill="white"/>
<path d="M711.618 364.352V408.191L572.484 327.853V284.047L711.618 364.352Z" fill="#236E9D"/>
<path opacity="0.1" d="M711.618 364.352V408.191L572.484 327.853V284.047L711.618 364.352Z" fill="black"/>
<path d="M891.996 295.314L732.309 367.356V411.162L891.996 339.12V295.314Z" fill="#236E9D"/>
<path opacity="0.3" d="M891.996 295.314L732.309 367.356V411.162L891.996 339.12V295.314Z" fill="black"/>
<path d="M891.995 295.314C849.009 266.054 791.683 250.621 725.24 250.416L729.508 321.4L732.308 367.356L891.995 295.314Z" fill="#236E9D"/>
<path opacity="0.1" d="M891.995 295.314C849.009 266.054 791.683 250.621 725.24 250.416L729.508 321.4L732.308 367.356L891.995 295.314Z" fill="black"/>
<path d="M725.207 250.416V294.222L732.309 411.162V367.356L725.207 250.416Z" fill="#263238"/>
<path d="M764.778 451.724L846.414 530.253C850.99 528.512 855.223 526.839 860.072 524.517C916.305 499.183 945.703 461.215 945.669 422.907V379.545C939.489 363.054 922.485 363.088 904.697 348.577L737.976 423.692L736.303 424.443L764.778 451.724Z" fill="#236E9D"/>
<path opacity="0.6" d="M764.778 451.724L846.414 530.253C850.99 528.512 855.223 526.839 860.072 524.517C916.305 499.183 945.703 461.215 945.669 422.907V379.545C939.489 363.054 922.485 363.088 904.697 348.577L737.976 423.692L736.303 424.443L764.778 451.724Z" fill="white"/>
<path d="M764.778 407.919L846.414 486.448C850.99 484.707 855.223 483.034 860.072 480.678C954.204 438.17 973.051 360.323 904.765 304.636L738.044 379.751L736.371 380.502L764.778 407.919Z" fill="#236E9D"/>
<path opacity="0.8" d="M764.778 407.919L846.414 486.448C850.99 484.707 855.223 483.034 860.072 480.678C954.204 438.17 973.051 360.323 904.765 304.636L738.044 379.751L736.371 380.502L764.778 407.919Z" fill="white"/>
<path d="M846.278 530.185V486.345L736.2 380.604V424.409L846.278 530.185Z" fill="#236E9D"/>
<path opacity="0.6" d="M846.278 530.185V486.345L736.2 380.604V424.409L846.278 530.185Z" fill="white"/>
<path d="M558.007 336.218C534.551 351.002 508.5 360.323 499.008 378.282V422.122C499.008 444.964 509.626 468.113 531.649 489.281C562.377 518.747 611.031 539.574 668.836 547.871C722.331 555.768 776.908 551.793 828.694 536.228V492.423L756.823 467.157L714.622 426.492L558.007 336.218Z" fill="#236E9D"/>
<path opacity="0.6" d="M558.007 336.218C534.551 351.002 508.5 360.323 499.008 378.282V422.122C499.008 444.964 509.626 468.113 531.649 489.281C562.377 518.747 611.031 539.574 668.836 547.871C722.331 555.768 776.908 551.793 828.694 536.228V492.423L756.823 467.157L714.622 426.492L558.007 336.218Z" fill="black"/>
<path d="M558.008 292.412C490.609 334.818 479.752 395.593 531.649 445.442C562.378 474.941 611.032 495.735 668.836 504.065C722.332 511.945 776.905 507.97 828.695 492.423L756.823 423.351L714.622 382.823L558.008 292.412Z" fill="#236E9D"/>
<path opacity="0.3" d="M558.008 292.412C490.609 334.818 479.752 395.593 531.649 445.442C562.378 474.941 611.032 495.735 668.836 504.065C722.332 511.945 776.905 507.97 828.695 492.423L756.823 423.351L714.622 382.823L558.008 292.412Z" fill="black"/>
<path d="M1340.06 770.143C1335.48 754.297 1327.3 739.725 1316.16 727.566C1303.01 713.122 1287.62 700.9 1270.58 691.375C1250.79 680.165 1229.75 671.33 1207.89 665.05C1183.81 658.1 1159.11 653.526 1134.14 651.393C1108.35 649.037 1082.39 649.037 1056.6 651.393C1031.64 653.529 1006.95 658.104 982.885 665.05C961.027 671.33 939.986 680.165 920.198 691.375C903.139 700.897 887.734 713.119 874.583 727.566C863.449 739.733 855.271 754.302 850.683 770.143C846.603 784.796 846.603 800.285 850.683 814.939C855.234 830.784 863.417 845.351 874.583 857.481C887.739 871.932 903.142 884.165 920.198 893.707C939.977 904.901 961.006 913.725 982.851 919.997C1006.94 926.93 1031.66 931.504 1056.63 933.654C1082.43 935.976 1108.38 935.976 1134.17 933.654C1159.15 931.508 1183.86 926.934 1207.96 919.997C1229.81 913.741 1250.84 904.904 1270.61 893.673C1287.68 884.153 1303.1 871.931 1316.26 857.481C1327.4 845.333 1335.58 830.773 1340.16 814.939C1344.19 800.274 1344.15 784.789 1340.06 770.143Z" fill="#37474F"/>
<path d="M847.575 770.109H1343.09V795.375L847.575 793.975V770.109Z" fill="#37474F"/>
<path d="M1056.57 628.893L1095.32 770.109L982.851 642.686C1006.91 635.694 1031.6 631.074 1056.57 628.893Z" fill="#455A64"/>
<path d="M1134.1 628.893L1095.39 770.109L1056.63 628.893C1082.4 626.541 1108.33 626.541 1134.1 628.893Z" fill="#455A64"/>
<path d="M1207.85 642.686L1095.39 770.109L1134.11 628.893C1159.08 631.07 1183.78 635.691 1207.85 642.686Z" fill="#455A64"/>
<path d="M1316.12 705.203C1327.27 717.375 1335.45 731.958 1340.02 747.814L1095.42 770.178L1316.12 705.203Z" fill="#455A64"/>
<path d="M1340.06 747.813C1344.12 762.457 1344.12 777.931 1340.06 792.575L1095.46 770.177L1340.06 747.813Z" fill="#455A64"/>
<path d="M1340.06 792.575C1335.47 808.416 1327.29 822.986 1316.16 835.151L1095.42 770.279L1340.06 792.575Z" fill="#455A64"/>
<path d="M1316.19 835.151C1303.01 849.582 1287.6 861.802 1270.54 871.343L1095.35 770.177L1316.19 835.151Z" fill="#455A64"/>
<path d="M1095.39 770.212L1207.89 897.668C1183.8 904.605 1159.08 909.179 1134.11 911.325L1095.35 770.109L1095.39 770.212Z" fill="#455A64"/>
<path d="M1095.35 770.245L1134.1 911.325C1108.31 913.663 1082.36 913.663 1056.57 911.325L1095.35 770.245Z" fill="#455A64"/>
<path d="M1095.32 770.211L1056.57 911.325C1031.59 909.175 1006.88 904.601 982.782 897.667L1095.32 770.211Z" fill="#455A64"/>
<path d="M1095.32 770.211L982.646 897.667C960.805 891.369 939.778 882.534 919.993 871.343L1095.32 770.211Z" fill="#455A64"/>
<path d="M1095.25 770.177L874.514 835.049C863.355 822.901 855.173 808.325 850.614 792.472L1095.25 770.177Z" fill="#455A64"/>
<path d="M1095.25 770.177L850.649 792.575C846.569 777.934 846.569 762.455 850.649 747.813L1095.25 770.177Z" fill="#455A64"/>
<path d="M1095.25 770.143L850.648 747.78C855.235 731.928 863.414 717.347 874.549 705.169L1095.25 770.143Z" fill="#455A64"/>
<path d="M920.164 668.908L1095.25 770.006L874.549 705.134C887.698 690.675 903.103 678.441 920.164 668.908Z" fill="#455A64"/>
<path d="M1270.54 668.908L1095.39 770.006L1207.85 642.584C1229.72 648.849 1250.76 657.686 1270.54 668.908Z" fill="#455A64"/>
<path d="M1270.54 668.908C1287.59 678.42 1302.98 690.631 1316.12 705.066L1095.46 769.938L1270.54 668.908Z" fill="#455A64"/>
<path d="M1095.32 770.143L920.13 871.343C903.083 861.802 887.682 849.582 874.515 835.151L1095.25 770.279L1095.32 770.143Z" fill="#455A64"/>
<path d="M982.851 642.687L1095.32 770.109L920.164 668.908C939.95 657.721 960.992 648.919 982.851 642.687Z" fill="#455A64"/>
<path d="M1095.39 770.211L1270.54 871.343C1250.76 882.546 1229.73 891.381 1207.89 897.667L1095.39 770.211Z" fill="#455A64"/>
<path d="M877.075 714.694V785.644C875.277 779.161 874.359 772.466 874.344 765.738V714.694H877.075Z" fill="#236E9D"/>
<path opacity="0.3" d="M877.075 714.694V785.644C875.277 779.161 874.359 772.466 874.344 765.738V714.694H877.075Z" fill="black"/>
<path d="M1095.25 714.763L877.075 734.702C873.455 721.644 873.455 707.847 877.075 694.789L1095.25 714.763Z" fill="#236E9D"/>
<path d="M1095.25 714.695L877.075 694.721C881.176 680.583 888.478 667.58 898.415 656.72L1095.25 714.695Z" fill="#236E9D"/>
<path d="M939.079 624.522L1095.25 714.695L898.415 656.651C910.156 643.827 923.887 632.979 939.079 624.522Z" fill="#236E9D"/>
<path d="M995.006 601.032L1095.32 714.661L939.079 624.523C956.728 614.511 975.501 606.626 995.006 601.032Z" fill="#236E9D"/>
<path d="M1060.77 588.74L1095.32 714.66L995.006 601.032C1016.47 594.788 1038.5 590.671 1060.77 588.74Z" fill="#236E9D"/>
<path d="M1130.11 588.741L1095.39 714.661L1060.83 588.741C1083.88 586.618 1107.07 586.618 1130.11 588.741Z" fill="#236E9D"/>
<path d="M1195.7 601.032L1095.39 714.66L1130.11 588.74C1152.32 590.682 1174.29 594.799 1195.7 601.032Z" fill="#236E9D"/>
<g opacity="0.2">
<path d="M1095.25 714.763L877.075 734.702C873.455 721.644 873.455 707.847 877.075 694.789L1095.25 714.763Z" fill="white"/>
<path d="M1095.25 714.695L877.075 694.721C881.176 680.583 888.478 667.58 898.415 656.72L1095.25 714.695Z" fill="white"/>
<path d="M939.079 624.523L1095.25 714.695L898.415 656.652C910.156 643.828 923.887 632.98 939.079 624.523Z" fill="white"/>
<path d="M995.006 601.032L1095.32 714.661L939.079 624.523C956.728 614.511 975.501 606.626 995.006 601.032Z" fill="white"/>
<path d="M1060.77 588.741L1095.32 714.661L995.006 601.033C1016.47 594.789 1038.5 590.672 1060.77 588.741Z" fill="white"/>
<path d="M1130.11 588.741L1095.39 714.661L1060.83 588.741C1083.88 586.618 1107.07 586.618 1130.11 588.741Z" fill="white"/>
<path d="M1195.7 601.033L1095.39 714.661L1130.11 588.741C1152.32 590.683 1174.29 594.8 1195.7 601.033Z" fill="white"/>
</g>
<path d="M1280.34 748.769L1247.6 779.498L1222.71 803.023L1198.98 825.352L1195.8 828.323V879.298C1215.3 873.71 1234.08 865.836 1251.73 855.842C1266.94 847.313 1280.68 836.396 1292.43 823.509C1302.36 812.683 1309.64 799.697 1313.7 785.576C1315.51 779.094 1316.44 772.399 1316.46 765.67V714.729L1280.34 748.769Z" fill="#236E9D"/>
<path opacity="0.3" d="M1280.34 748.769L1247.6 779.498L1222.71 803.023L1198.98 825.352L1195.8 828.323V879.298C1215.3 873.71 1234.08 865.836 1251.73 855.842C1266.94 847.313 1280.68 836.396 1292.43 823.509C1302.36 812.683 1309.64 799.697 1313.7 785.576C1315.51 779.094 1316.44 772.399 1316.46 765.67V714.729L1280.34 748.769Z" fill="black"/>
<path d="M1292.29 656.788C1302.21 667.658 1309.51 680.658 1313.63 694.789L1095.42 714.763L1292.29 656.788Z" fill="#236E9D"/>
<path d="M1316.36 714.797C1316.33 721.537 1315.4 728.243 1313.6 734.736L1247.49 728.659L1095.42 714.729L1280.24 697.657L1313.6 694.618C1315.42 701.189 1316.35 707.977 1316.36 714.797Z" fill="#236E9D"/>
<path d="M1313.6 734.736C1309.53 748.854 1302.25 761.839 1292.32 772.669L1222.6 752.183L1095.42 714.626L1247.49 728.556L1313.6 734.736Z" fill="#236E9D"/>
<path d="M1292.32 772.67C1280.58 785.557 1266.84 796.474 1251.63 805.003L1198.87 774.479L1095.46 714.797L1222.64 752.354L1292.32 772.67Z" fill="#236E9D"/>
<path d="M1251.63 624.523L1095.39 714.729L1195.7 601.101C1215.2 606.685 1233.97 614.547 1251.63 624.523Z" fill="#236E9D"/>
<path d="M1251.63 624.522C1266.82 633.029 1280.55 643.923 1292.29 656.788L1095.42 714.831L1251.63 624.522Z" fill="#236E9D"/>
<path d="M1251.63 805.003C1233.97 814.986 1215.2 822.848 1195.7 828.425L1095.46 714.797L1198.87 774.479L1251.63 805.003Z" fill="#236E9D"/>
<g opacity="0.2">
<path d="M1292.29 656.788C1302.21 667.658 1309.51 680.658 1313.63 694.789L1095.42 714.763L1292.29 656.788Z" fill="white"/>
<path d="M1316.36 714.797C1316.33 721.537 1315.4 728.243 1313.6 734.736L1247.49 728.659L1095.42 714.729L1280.24 697.657L1313.6 694.618C1315.42 701.189 1316.35 707.977 1316.36 714.797Z" fill="white"/>
<path d="M1313.6 734.737C1309.53 748.855 1302.25 761.84 1292.32 772.67L1222.6 752.184L1095.42 714.627L1247.49 728.557L1313.6 734.737Z" fill="white"/>
<path d="M1292.32 772.67C1280.58 785.557 1266.84 796.474 1251.63 805.003L1198.87 774.479L1095.46 714.797L1222.64 752.354L1292.32 772.67Z" fill="white"/>
<path d="M1251.63 624.523L1095.39 714.729L1195.7 601.101C1215.2 606.685 1233.97 614.547 1251.63 624.523Z" fill="white"/>
<path d="M1251.63 624.522C1266.82 633.029 1280.55 643.923 1292.29 656.788L1095.42 714.831L1251.63 624.522Z" fill="white"/>
<path d="M1251.63 805.003C1233.97 814.986 1215.2 822.848 1195.7 828.425L1095.46 714.797L1198.87 774.479L1251.63 805.003Z" fill="white"/>
</g>
<path d="M1195.73 828.459V879.435L1095.32 765.67V714.66L1195.73 828.459Z" fill="#263238"/>
<path d="M1095.32 765.67L877.075 785.712V734.702L1095.32 714.66V765.67Z" fill="#236E9D"/>
<path opacity="0.1" d="M1095.32 765.67L877.075 785.712V734.702L1095.32 714.66V765.67Z" fill="black"/>
<path d="M594.063 770.143C589.486 754.297 581.306 739.725 570.163 727.566C557.016 713.128 541.624 700.907 524.582 691.375C504.785 680.16 483.732 671.323 461.861 665.05C437.794 658.1 413.105 653.526 388.146 651.393C362.353 649.037 336.399 649.037 310.607 651.393C285.637 653.529 260.936 658.103 236.857 665.05C214.976 671.325 193.912 680.161 174.102 691.375C157.055 700.9 141.663 713.122 128.521 727.566C117.378 739.725 109.198 754.297 104.621 770.143C100.574 784.801 100.574 800.281 104.621 814.939C109.19 830.777 117.371 845.34 128.521 857.481C141.66 871.937 157.053 884.171 174.102 893.707C193.875 904.913 214.906 913.738 236.755 919.997C260.848 926.934 285.559 931.508 310.538 933.654C336.333 935.976 362.283 935.976 388.077 933.654C413.057 931.508 437.768 926.934 461.861 919.997C483.716 913.741 504.748 904.904 524.513 893.673C541.587 884.157 557.004 871.934 570.163 857.481C581.313 845.34 589.494 830.777 594.063 814.939C598.11 800.281 598.11 784.801 594.063 770.143Z" fill="#37474F"/>
<path d="M101.548 770.109H597.067V795.375L101.548 793.975V770.109Z" fill="#37474F"/>
<path d="M310.675 628.893L349.393 770.109L236.926 642.686C261 635.693 285.701 631.074 310.675 628.893Z" fill="#455A64"/>
<path d="M388.077 628.893L349.359 770.109L310.675 628.893C336.422 626.545 362.33 626.545 388.077 628.893Z" fill="#455A64"/>
<path d="M461.792 642.686L349.358 770.109L388.077 628.893C413.04 631.07 437.73 635.69 461.792 642.686Z" fill="#455A64"/>
<path d="M570.162 705.203C581.306 717.375 589.486 731.958 594.062 747.814L349.427 770.178L570.162 705.203Z" fill="#455A64"/>
<path d="M594.062 747.813C598.108 762.46 598.108 777.929 594.062 792.575L349.427 770.177L594.062 747.813Z" fill="#455A64"/>
<path d="M594.062 792.575C589.487 808.421 581.307 822.993 570.162 835.151L349.427 770.279L594.062 792.575Z" fill="#455A64"/>
<path d="M570.162 835.151C556.995 849.582 541.593 861.802 524.547 871.343L349.324 770.177L570.162 835.151Z" fill="#455A64"/>
<path d="M349.358 770.212L461.86 897.668C437.767 904.605 413.056 909.179 388.077 911.325L349.29 770.109L349.358 770.212Z" fill="#455A64"/>
<path d="M349.291 770.245L388.077 911.325C362.329 913.655 336.423 913.655 310.675 911.325L349.291 770.245Z" fill="#455A64"/>
<path d="M349.257 770.211L310.675 911.325C285.695 909.178 260.984 904.604 236.892 897.667L349.257 770.211Z" fill="#455A64"/>
<path d="M349.256 770.211L236.584 897.667C214.797 891.369 193.826 882.534 174.102 871.343L349.256 770.211Z" fill="#455A64"/>
<path d="M349.223 770.177L128.487 835.049C117.343 822.89 109.163 808.318 104.587 792.472L349.223 770.177Z" fill="#455A64"/>
<path d="M349.223 770.177L104.587 792.575C100.541 777.929 100.541 762.46 104.587 747.813L349.223 770.177Z" fill="#455A64"/>
<path d="M349.223 770.143L104.587 747.78C109.163 731.924 117.343 717.341 128.487 705.169L349.223 770.143Z" fill="#455A64"/>
<path d="M174.102 668.908L349.222 770.006L128.521 705.134C141.657 690.675 157.05 678.441 174.102 668.908Z" fill="#455A64"/>
<path d="M524.513 668.908L349.358 770.006L461.792 642.584C483.668 648.843 504.722 657.68 524.513 668.908Z" fill="#455A64"/>
<path d="M524.513 668.908C541.588 678.465 557.003 690.721 570.162 705.202L349.461 770.074L524.513 668.908Z" fill="#455A64"/>
<path d="M349.256 770.143L174.102 871.343C157.049 861.81 141.646 849.59 128.486 835.151L349.222 770.279L349.256 770.143Z" fill="#455A64"/>
<path d="M236.788 642.687L349.256 770.109L174.102 668.908C193.888 657.721 214.93 648.919 236.788 642.687Z" fill="#455A64"/>
<path d="M349.358 770.211L524.513 871.343C504.734 882.546 483.705 891.381 461.86 897.667L349.358 770.211Z" fill="#455A64"/>
<path d="M415.187 682.566L443.423 650.54C443.423 612.982 397.535 612.06 377.254 610.251C356.973 608.441 322.181 596.798 322.181 639.546L331.877 674.918C359.876 673.119 387.984 675.699 415.187 682.566Z" fill="#236E9D"/>
<path opacity="0.6" d="M415.187 682.566L443.423 650.54C443.423 612.982 397.535 612.06 377.254 610.251C356.973 608.441 322.181 596.798 322.181 639.546L331.877 674.918C359.876 673.119 387.984 675.699 415.187 682.566Z" fill="white"/>
<path d="M415.187 632.273L443.423 600.281C403.885 589.991 362.924 586.277 322.181 589.287L331.877 624.522C359.881 622.757 387.989 625.372 415.187 632.273Z" fill="#236E9D"/>
<path opacity="0.8" d="M415.187 632.273L443.423 600.281C403.885 589.991 362.924 586.277 322.181 589.287L331.877 624.522C359.881 622.757 387.989 625.372 415.187 632.273Z" fill="white"/>
<path d="M331.877 624.659V674.986L322.181 639.614V589.287L331.877 624.659Z" fill="#236E9D"/>
<path d="M443.423 600.281L415.187 632.273V682.634L443.423 650.608V600.281Z" fill="#236E9D"/>
<g opacity="0.6">
<path d="M331.877 624.659V674.986L322.181 639.614V589.287L331.877 624.659Z" fill="white"/>
<path d="M443.423 600.281L415.187 632.273V682.634L443.423 650.608V600.281Z" fill="white"/>
</g>
<path d="M428.98 636.336V686.663C440.761 690.467 452.131 695.442 462.919 701.515C472.332 706.86 480.98 713.453 488.629 721.114L544.009 704.827C532.997 693.588 520.457 683.956 506.759 676.215C491.633 667.543 475.449 632.376 428.98 636.336Z" fill="#236E9D"/>
<path opacity="0.6" d="M428.98 636.336V686.663C440.761 690.467 452.131 695.442 462.919 701.515C472.332 706.86 480.98 713.453 488.629 721.114L544.009 704.827C532.997 693.588 520.457 683.956 506.759 676.215C491.633 667.543 475.449 632.376 428.98 636.336Z" fill="black"/>
<path d="M457.217 604.378L428.98 636.336C440.773 640.11 452.145 645.087 462.919 651.188C472.332 656.533 480.98 663.126 488.629 670.786L544.009 654.5C533.016 643.24 520.472 633.606 506.759 625.888C491.061 616.967 474.452 609.756 457.217 604.378Z" fill="#236E9D"/>
<path opacity="0.3" d="M457.217 604.378L428.98 636.336C440.773 640.11 452.145 645.087 462.919 651.188C472.332 656.533 480.98 663.126 488.629 670.786L544.009 654.5C533.016 643.24 520.472 633.606 506.759 625.888C491.061 616.967 474.452 609.756 457.217 604.378Z" fill="black"/>
<path d="M488.629 670.786L544.009 654.466V704.827L488.629 721.113V670.786Z" fill="#236E9D"/>
<path opacity="0.6" d="M488.629 670.786L544.009 654.466V704.827L488.629 721.113V670.786Z" fill="black"/>
<path d="M571.801 715.446H553.091C552.408 714.558 551.828 713.671 551.145 712.783L495.696 678.64V729.001C507.51 744.194 511.983 760.788 508.91 777.074L570.162 782.776C571.199 777.698 571.714 772.527 571.699 767.343L571.801 715.446Z" fill="#236E9D"/>
<path opacity="0.6" d="M571.801 715.446H553.091C552.408 714.558 551.828 713.671 551.145 712.783L495.696 678.64V729.001C507.51 744.194 511.983 760.788 508.91 777.074L570.162 782.776C571.199 777.698 571.714 772.527 571.699 767.343L571.801 715.446Z" fill="black"/>
<path d="M508.876 726.952L570.162 732.449C575.147 708.787 568.831 684.443 551.111 662.455L495.662 678.741C507.476 693.935 512.119 710.563 508.876 726.952Z" fill="#236E9D"/>
<path opacity="0.3" d="M508.876 726.952L570.162 732.449C575.147 708.787 568.831 684.443 551.111 662.455L495.662 678.741C507.476 693.935 512.119 710.563 508.876 726.952Z" fill="black"/>
<path d="M570.163 732.449V782.81L508.876 777.177V726.85L570.163 732.449Z" fill="#236E9D"/>
<path opacity="0.6" d="M570.163 732.449V782.81L508.876 777.177V726.85L570.163 732.449Z" fill="black"/>
<path d="M316.582 676.42V626.059C282.438 610.319 218.864 626.298 197.559 673.177L241.398 698.511C264.946 686.734 290.406 679.253 316.582 676.42Z" fill="#236E9D"/>
<path opacity="0.3" d="M316.582 676.42V626.059C282.438 610.319 218.864 626.298 197.559 673.177L241.398 698.511C264.946 686.734 290.406 679.253 316.582 676.42Z" fill="black"/>
<path d="M316.582 626.059L306.851 590.584C265.572 595.227 227.775 606.597 197.593 622.849L241.433 648.149C264.97 636.376 290.418 628.896 316.582 626.059Z" fill="#236E9D"/>
<path opacity="0.1" d="M316.582 626.059L306.851 590.584C265.572 595.227 227.775 606.597 197.593 622.849L241.433 648.149C264.97 636.376 290.418 628.896 316.582 626.059Z" fill="black"/>
<path d="M241.398 648.15V698.511L197.559 673.177V622.85L241.398 648.15Z" fill="#263238"/>
<path d="M195.544 654.5L186.53 679.459C157.065 697.691 138.457 719.645 130.809 742.623L192.266 748.223C197.9 732.483 210.738 717.494 230.609 704.861V654.5H195.544Z" fill="#236E9D"/>
<path opacity="0.3" d="M195.544 654.5L186.53 679.459C157.065 697.691 138.457 719.645 130.809 742.623L192.266 748.223C197.9 732.483 210.738 717.494 230.609 704.861V654.5H195.544Z" fill="black"/>
<path d="M230.472 654.5L186.53 629.132C157.065 647.33 138.457 669.318 130.809 692.262L192.266 697.896C197.763 682.156 210.601 667.133 230.472 654.5Z" fill="#236E9D"/>
<path opacity="0.1" d="M230.472 654.5L186.53 629.132C157.065 647.33 138.457 669.318 130.809 692.262L192.266 697.896C197.763 682.156 210.601 667.133 230.472 654.5Z" fill="black"/>
<path d="M130.809 692.263V742.624L192.13 748.223V697.896L130.809 692.263Z" fill="#263238"/>
<path d="M189.705 757.066V706.705L171.473 705.066L126.813 716.709V767.002C127.099 786.985 134.344 806.243 147.299 821.46L202.748 805.174C191.173 789.98 186.666 773.353 189.705 757.066Z" fill="#236E9D"/>
<path opacity="0.3" d="M189.705 757.066V706.705L171.473 705.066L126.813 716.709V767.002C127.099 786.985 134.344 806.243 147.299 821.46L202.748 805.174C191.173 789.98 186.666 773.353 189.705 757.066Z" fill="black"/>
<path d="M147.505 771.133L202.953 754.812V805.174L147.505 821.46V771.133Z" fill="#263238"/>
<path d="M189.739 706.705L128.282 701.105C123.297 724.801 129.613 749.111 147.334 771.133L202.782 754.813C191.173 739.619 186.667 722.991 189.739 706.705Z" fill="#236E9D"/>
<path opacity="0.1" d="M189.739 706.705L128.282 701.105C123.297 724.801 129.613 749.111 147.334 771.133L202.782 754.813C191.173 739.619 186.667 722.991 189.739 706.705Z" fill="black"/>
<path d="M255.328 821.392C229.346 806.403 216.371 786.771 216.371 767.138V716.709H482.244V767.036C482.244 786.702 469.269 806.335 443.286 821.324C391.389 851.37 307.26 851.37 255.328 821.392Z" fill="#37474F"/>
<path d="M349.325 793.531C422.734 793.531 482.244 759.167 482.244 716.777C482.244 674.387 422.734 640.023 349.325 640.023C275.915 640.023 216.405 674.387 216.405 716.777C216.405 759.167 275.915 793.531 349.325 793.531Z" fill="#455A64"/>
<path d="M241.398 835.801V829.382L154.572 779.089V829.382C165.587 840.631 178.14 850.264 191.857 857.994C207.554 866.915 224.163 874.126 241.398 879.504L269.601 847.546C259.902 844.389 250.471 840.462 241.398 835.801Z" fill="#236E9D"/>
<path opacity="0.3" d="M241.398 835.801V829.382L154.572 779.089V829.382C165.587 840.631 178.14 850.264 191.857 857.994C207.554 866.915 224.163 874.126 241.398 879.504L269.601 847.546C259.902 844.389 250.471 840.462 241.398 835.801Z" fill="black"/>
<path d="M235.56 782.366C226.136 777.035 217.476 770.454 209.816 762.802L154.436 779.088C165.459 790.328 178.011 799.96 191.72 807.7C207.424 816.607 224.031 823.818 241.262 829.21L269.464 797.218C257.683 793.444 246.321 788.467 235.56 782.366Z" fill="#236E9D"/>
<path opacity="0.1" d="M235.56 782.366C226.136 777.035 217.476 770.454 209.816 762.802L154.436 779.088C165.459 790.328 178.011 799.96 191.72 807.7C207.424 816.607 224.031 823.818 241.262 829.21L269.464 797.218C257.683 793.444 246.321 788.467 235.56 782.366Z" fill="black"/>
<path d="M241.398 879.538V829.211L269.601 797.219V847.58L241.398 879.538Z" fill="#263238"/>
<path d="M255.192 833.273V883.635C294.73 893.924 335.691 897.639 376.435 894.629V844.302L255.192 833.273Z" fill="#236E9D"/>
<path opacity="0.1" d="M255.192 833.273V883.635C294.73 893.924 335.691 897.639 376.435 894.629V844.302L255.192 833.273Z" fill="black"/>
<path d="M283.36 801.281L255.124 833.273C294.663 843.558 335.621 847.284 376.366 844.302L366.738 808.895C338.719 810.712 310.587 808.143 283.36 801.281Z" fill="#236E9D"/>
<path opacity="0.2" d="M283.36 801.281L255.124 833.273C294.663 843.558 335.621 847.284 376.366 844.302L366.738 808.895C338.719 810.712 310.587 808.143 283.36 801.281Z" fill="white"/>
<path d="M468.143 829.381L512.119 854.784C541.585 836.585 560.193 814.597 567.841 791.619V741.292L506.383 786.019C500.852 801.759 488.014 816.782 468.143 829.381Z" fill="#236E9D"/>
<path opacity="0.1" d="M468.143 829.381L512.119 854.784C541.585 836.585 560.193 814.597 567.841 791.619V741.292L506.383 786.019C500.852 801.759 488.014 816.782 468.143 829.381Z" fill="black"/>
<path d="M468.143 779.054L512.119 804.457C541.585 786.224 560.193 764.27 567.841 741.292L506.383 735.692C500.852 751.432 488.014 766.421 468.143 779.054Z" fill="#236E9D"/>
<path opacity="0.2" d="M468.143 779.054L512.119 804.457C541.585 786.224 560.193 764.27 567.841 741.292L506.383 735.692C500.852 751.432 488.014 766.421 468.143 779.054Z" fill="white"/>
<path d="M512.085 804.457V854.784L468.143 829.416V779.055L512.085 804.457Z" fill="#236E9D"/>
<path opacity="0.3" d="M512.085 804.457V854.784L468.143 829.416V779.055L512.085 804.457Z" fill="black"/>
<path d="M391.765 843.039V856.696C388.521 857.208 385.312 857.652 382.034 858.028L391.765 893.468C431.542 889.03 469.577 878.274 501.023 861.271V810.773L391.765 843.039Z" fill="#236E9D"/>
<path opacity="0.1" d="M391.765 843.039V856.696C388.521 857.208 385.312 857.652 382.034 858.028L391.765 893.468C431.542 889.03 469.577 878.274 501.023 861.271V810.773L391.765 843.039Z" fill="black"/>
<path d="M382.034 807.53L391.765 843.039C431.542 838.6 469.577 827.879 501.023 810.876L457.081 785.474C433.593 797.273 408.171 804.744 382.034 807.53Z" fill="#236E9D"/>
<path opacity="0.2" d="M382.034 807.53L391.765 843.039C431.542 838.6 469.577 827.879 501.023 810.876L457.081 785.474C433.593 797.273 408.171 804.744 382.034 807.53Z" fill="white"/>
<path d="M391.765 842.936V893.263L382.034 857.89V807.529L391.765 842.936Z" fill="#236E9D"/>
<path opacity="0.3" d="M391.765 842.936V893.263L382.034 857.89V807.529L391.765 842.936Z" fill="black"/>
<path d="M1243.84 506.182C1243.72 503.962 1243.08 501.801 1241.97 499.874C1240.86 497.946 1239.31 496.306 1237.46 495.085L1145 441.72C1141.58 439.671 1138.61 441.344 1138.61 445.441V534.794C1138.73 537.015 1139.37 539.178 1140.48 541.106C1141.58 543.035 1143.13 544.674 1145 545.89L1183.71 568.22L1195.94 617.693C1195.9 618.599 1196.22 619.484 1196.83 620.153C1197.44 620.822 1198.29 621.221 1199.2 621.261C1200.1 621.302 1200.99 620.982 1201.66 620.37C1202.33 619.759 1202.73 618.906 1202.77 618.001L1213.97 585.667L1237.63 599.324C1241.04 601.373 1244.01 599.7 1244.01 595.637L1243.84 506.182Z" fill="#236E9D"/>
<path opacity="0.5" d="M1243.84 506.182C1243.72 503.962 1243.08 501.801 1241.97 499.874C1240.86 497.946 1239.31 496.306 1237.46 495.085L1145 441.72C1141.58 439.671 1138.61 441.344 1138.61 445.441V534.794C1138.73 537.015 1139.37 539.178 1140.48 541.106C1141.58 543.035 1143.13 544.674 1145 545.89L1183.71 568.22L1195.94 617.693C1195.9 618.599 1196.22 619.484 1196.83 620.153C1197.44 620.822 1198.29 621.221 1199.2 621.261C1200.1 621.302 1200.99 620.982 1201.66 620.37C1202.33 619.759 1202.73 618.906 1202.77 618.001L1213.97 585.667L1237.63 599.324C1241.04 601.373 1244.01 599.7 1244.01 595.637L1243.84 506.182Z" fill="white"/>
<path d="M1173.64 482.418C1175.53 483.491 1177.27 484.799 1178.83 486.31C1180.23 487.667 1181.47 489.166 1182.55 490.783C1183.49 492.214 1184.26 493.749 1184.84 495.358C1185.32 496.726 1185.63 498.148 1185.76 499.592C1185.76 501.06 1185.93 502.597 1185.93 504.201C1185.93 505.806 1185.93 507.274 1185.76 508.64C1185.68 509.74 1185.37 510.81 1184.84 511.781C1184.33 512.678 1183.52 513.367 1182.55 513.727C1181.34 514.061 1180.05 514.061 1178.83 513.727C1177 513.302 1175.24 512.575 1173.64 511.576C1171.75 510.514 1169.99 509.218 1168.42 507.718C1167.02 506.401 1165.78 504.922 1164.73 503.314C1162.95 500.674 1161.83 497.638 1161.49 494.47C1161.49 493.002 1161.49 491.466 1161.49 489.861C1161.49 488.256 1161.49 486.788 1161.49 485.457C1161.59 484.345 1161.92 483.266 1162.44 482.281C1162.94 481.371 1163.75 480.677 1164.73 480.335C1165.92 479.959 1167.2 479.9 1168.42 480.164C1170.28 480.602 1172.05 481.365 1173.64 482.418ZM1206.28 503.211C1206.63 502.955 1207.05 502.801 1207.48 502.767C1208.1 502.808 1208.7 503.008 1209.22 503.348L1214.1 506.182C1214.66 506.499 1215.15 506.93 1215.54 507.445C1215.86 507.882 1216.03 508.406 1216.05 508.947C1216.06 509.061 1216.06 509.175 1216.05 509.289C1215.99 509.415 1215.91 509.531 1215.81 509.63L1175.59 539.335C1175.24 539.594 1174.83 539.759 1174.39 539.813C1173.77 539.772 1173.17 539.559 1172.65 539.198L1167.77 536.398C1167.2 536.076 1166.71 535.633 1166.34 535.101C1166.01 534.679 1165.82 534.167 1165.79 533.633C1165.76 533.509 1165.76 533.381 1165.79 533.257C1165.84 533.124 1165.92 533.006 1166.03 532.916L1206.28 503.211ZM1177.94 503.211C1177.99 502.712 1177.99 502.208 1177.94 501.709V497.304C1177.99 496.77 1177.99 496.234 1177.94 495.7C1177.83 494.5 1177.47 493.337 1176.89 492.285C1176.1 491.007 1174.98 489.968 1173.64 489.281C1172.07 488.359 1170.98 488.12 1170.23 488.53C1169.91 488.789 1169.64 489.116 1169.46 489.488C1169.28 489.859 1169.18 490.266 1169.17 490.681C1169.17 490.988 1169.17 491.466 1169.17 492.183C1169.17 492.9 1169.17 493.583 1169.17 494.334C1169.17 495.085 1169.17 495.836 1169.17 496.553C1169.17 497.27 1169.17 497.816 1169.17 498.192C1169.3 499.388 1169.66 500.548 1170.23 501.606C1171.07 502.905 1172.25 503.946 1173.64 504.611C1175.21 505.533 1176.31 505.772 1176.89 505.362C1177.19 505.115 1177.45 504.804 1177.62 504.45C1177.8 504.097 1177.9 503.709 1177.91 503.314L1177.94 503.211ZM1208.88 531.243C1210.78 532.316 1212.53 533.624 1214.1 535.135C1215.49 536.491 1216.72 537.99 1217.79 539.608C1218.75 541.023 1219.52 542.562 1220.08 544.183C1220.55 545.554 1220.87 546.974 1221.03 548.417C1221.03 549.885 1221.03 551.421 1221.03 553.026C1221.03 554.631 1221.03 556.099 1221.03 557.465C1220.93 558.565 1220.6 559.633 1220.08 560.606C1219.84 561.065 1219.52 561.474 1219.13 561.808C1218.74 562.142 1218.28 562.395 1217.79 562.552C1216.59 562.905 1215.31 562.905 1214.1 562.552C1212.25 562.126 1210.49 561.4 1208.88 560.401C1206.99 559.339 1205.25 558.043 1203.69 556.543C1202.29 555.217 1201.04 553.74 1199.97 552.138C1199.02 550.711 1198.25 549.175 1197.68 547.563C1197.2 546.194 1196.89 544.773 1196.76 543.329C1196.76 541.827 1196.76 540.291 1196.76 538.686C1196.76 537.081 1196.76 535.613 1196.76 534.281C1196.84 533.17 1197.15 532.087 1197.68 531.106C1198.18 530.202 1198.99 529.51 1199.97 529.16C1201.19 528.859 1202.47 528.859 1203.69 529.16C1205.53 529.577 1207.29 530.317 1208.88 531.345V531.243ZM1213.21 552.138C1213.24 551.638 1213.24 551.136 1213.21 550.636V546.334C1213.21 545.651 1213.21 545.105 1213.21 544.763C1213.07 543.57 1212.71 542.413 1212.16 541.349C1211.31 540.059 1210.13 539.022 1208.74 538.344C1207.17 537.423 1206.08 537.184 1205.5 537.593C1205.17 537.853 1204.91 538.18 1204.73 538.551C1204.55 538.923 1204.45 539.33 1204.44 539.744C1204.4 540.244 1204.4 540.746 1204.44 541.247C1204.44 541.929 1204.44 542.646 1204.44 543.398C1204.44 544.149 1204.44 544.9 1204.44 545.651C1204.41 546.185 1204.41 546.721 1204.44 547.256C1204.55 548.456 1204.91 549.62 1205.5 550.67C1206.27 551.957 1207.4 552.998 1208.74 553.675C1210.31 554.597 1211.4 554.836 1212.16 554.426C1212.48 554.157 1212.74 553.823 1212.92 553.446C1213.1 553.07 1213.2 552.659 1213.21 552.241V552.138Z" fill="#FAFAFA"/>
<path d="M843.854 163.589C843.73 161.37 843.088 159.21 841.979 157.283C840.871 155.356 839.326 153.716 837.469 152.493L745.01 99.1612C741.595 97.1127 738.625 98.7515 738.625 102.849V192.201C738.744 194.427 739.383 196.593 740.492 198.527C741.601 200.46 743.149 202.106 745.01 203.332L783.728 225.662L795.951 275.033C796.085 275.797 796.476 276.494 797.058 277.007C797.641 277.52 798.382 277.819 799.157 277.855C799.933 277.891 800.697 277.661 801.325 277.204C801.953 276.747 802.406 276.089 802.609 275.34L813.808 243.006L837.469 256.664C840.884 258.712 843.854 257.073 843.854 252.976V163.589Z" fill="#236E9D"/>
<path opacity="0.5" d="M843.854 163.589C843.73 161.37 843.088 159.21 841.979 157.283C840.871 155.356 839.326 153.716 837.469 152.493L745.01 99.1612C741.595 97.1127 738.625 98.7515 738.625 102.849V192.201C738.744 194.427 739.383 196.593 740.492 198.527C741.601 200.46 743.149 202.106 745.01 203.332L783.728 225.662L795.951 275.033C796.085 275.797 796.476 276.494 797.058 277.007C797.641 277.52 798.382 277.819 799.157 277.855C799.933 277.891 800.697 277.661 801.325 277.204C801.953 276.747 802.406 276.089 802.609 275.34L813.808 243.006L837.469 256.664C840.884 258.712 843.854 257.073 843.854 252.976V163.589Z" fill="white"/>
<path d="M773.655 139.962C775.542 141.035 777.286 142.343 778.845 143.854C780.23 145.218 781.477 146.716 782.566 148.327C783.517 149.75 784.286 151.287 784.854 152.902C785.335 154.27 785.645 155.692 785.776 157.136C785.776 158.604 785.947 160.14 785.947 161.745C785.947 163.35 785.946 164.818 785.776 166.184C785.697 167.296 785.383 168.378 784.854 169.359C784.359 170.261 783.542 170.944 782.566 171.271C781.364 171.663 780.078 171.722 778.845 171.442C777.002 171.016 775.247 170.277 773.655 169.257C771.751 168.206 769.995 166.909 768.431 165.398C767.032 164.081 765.794 162.603 764.744 160.994C763.78 159.578 763.01 158.039 762.456 156.419C761.981 155.047 761.661 153.627 761.5 152.185C761.5 150.683 761.5 149.146 761.5 147.576C761.5 146.005 761.5 144.469 761.5 143.137C761.605 142.026 761.93 140.947 762.456 139.962C762.95 139.051 763.766 138.357 764.744 138.016C765.954 137.714 767.22 137.714 768.431 138.016C770.272 138.358 772.039 139.016 773.655 139.962ZM806.296 160.755C806.653 160.514 807.063 160.361 807.491 160.311C808.117 160.352 808.719 160.565 809.232 160.926L814.115 163.725C814.667 164.054 815.153 164.482 815.549 164.989C815.864 165.428 816.042 165.951 816.061 166.491C816.074 166.616 816.074 166.742 816.061 166.867C815.993 166.988 815.913 167.103 815.822 167.208L775.601 196.913C775.244 197.154 774.834 197.306 774.406 197.356C773.78 197.315 773.178 197.103 772.665 196.742L767.782 193.942C767.216 193.633 766.726 193.201 766.348 192.679C766.033 192.24 765.854 191.717 765.836 191.177C765.804 191.065 765.804 190.947 765.836 190.835C765.883 190.692 765.965 190.562 766.075 190.46L806.296 160.755ZM777.957 160.755C778.007 160.255 778.007 159.752 777.957 159.253V154.848C778.003 154.326 778.003 153.8 777.957 153.278C777.856 152.076 777.495 150.911 776.898 149.863C776.124 148.566 775 147.513 773.655 146.825C772.084 145.937 770.992 145.664 770.241 146.108C769.924 146.373 769.667 146.701 769.485 147.072C769.303 147.442 769.2 147.846 769.182 148.259C769.182 148.532 769.182 149.044 769.182 149.727C769.182 150.41 769.182 151.127 769.182 151.912C769.182 152.697 769.182 153.414 769.182 154.131C769.182 154.848 769.182 155.395 769.182 155.736C769.316 156.931 769.675 158.089 770.241 159.15C771.078 160.449 772.26 161.489 773.655 162.155C775.226 163.077 776.318 163.316 776.898 162.906C777.214 162.662 777.472 162.353 777.655 161.999C777.837 161.645 777.941 161.255 777.957 160.857V160.755ZM808.891 188.787C810.797 189.86 812.553 191.18 814.115 192.713C815.507 194.049 816.744 195.538 817.802 197.152C818.76 198.571 819.529 200.109 820.09 201.727C820.561 203.099 820.881 204.519 821.046 205.961C821.046 207.463 821.046 208.999 821.046 210.604C821.046 212.209 821.046 213.677 821.046 215.008C820.94 216.12 820.615 217.199 820.09 218.184C819.596 219.094 818.78 219.788 817.802 220.13C816.596 220.468 815.32 220.468 814.115 220.13C812.267 219.704 810.502 218.978 808.891 217.979C807.018 216.897 805.277 215.602 803.701 214.121C802.308 212.776 801.061 211.288 799.979 209.682C799.042 208.251 798.274 206.716 797.692 205.107C797.211 203.739 796.901 202.317 796.77 200.873C796.77 199.405 796.599 197.869 796.599 196.264C796.599 194.659 796.599 193.191 796.77 191.825C796.852 190.714 797.166 189.633 797.692 188.65C798.204 187.762 799.015 187.085 799.979 186.738C801.182 186.351 802.463 186.28 803.701 186.533C805.554 187.013 807.31 187.81 808.891 188.889V188.787ZM813.227 209.682C813.254 209.182 813.254 208.68 813.227 208.18V203.878C813.227 203.195 813.227 202.649 813.227 202.307C813.109 201.109 812.749 199.947 812.168 198.893C811.333 197.584 810.151 196.532 808.754 195.854C807.184 194.966 806.091 194.693 805.51 195.137C805.182 195.392 804.916 195.718 804.733 196.09C804.549 196.463 804.453 196.873 804.452 197.288C804.415 197.777 804.415 198.268 804.452 198.756C804.452 199.439 804.452 200.156 804.452 200.942C804.452 201.727 804.452 202.444 804.452 203.161C804.418 203.695 804.418 204.231 804.452 204.766C804.553 205.967 804.914 207.132 805.51 208.18C806.285 209.477 807.409 210.53 808.754 211.219C810.325 212.106 811.463 212.345 812.168 211.936C812.491 211.676 812.753 211.349 812.936 210.978C813.119 210.606 813.218 210.199 813.227 209.785V209.682Z" fill="#FAFAFA"/>
<path d="M209.064 503.416C209.186 501.196 209.827 499.035 210.936 497.108C212.045 495.181 213.591 493.541 215.449 492.32L307.909 438.954C311.323 436.905 314.293 438.579 314.293 442.676V532.028C314.177 534.25 313.539 536.413 312.429 538.341C311.32 540.269 309.771 541.908 307.909 543.125L269.19 565.454L256.967 614.86C257.008 615.765 256.687 616.65 256.076 617.319C255.464 617.988 254.612 618.387 253.706 618.428C252.801 618.468 251.916 618.148 251.247 617.536C250.578 616.925 250.179 616.072 250.139 615.167L238.974 582.833L215.313 596.491C211.898 598.539 208.928 596.866 208.928 592.803L209.064 503.416Z" fill="#236E9D"/>
<g opacity="0.5">
<path d="M209.064 503.416C209.186 501.196 209.827 499.035 210.936 497.108C212.045 495.181 213.591 493.541 215.449 492.32L307.909 438.954C311.323 436.905 314.293 438.579 314.293 442.676V532.028C314.177 534.25 313.539 536.413 312.429 538.341C311.32 540.269 309.771 541.908 307.909 543.125L269.19 565.454L256.967 614.86C257.008 615.765 256.687 616.65 256.076 617.319C255.464 617.988 254.612 618.387 253.706 618.428C252.801 618.468 251.916 618.148 251.247 617.536C250.578 616.925 250.179 616.072 250.139 615.167L238.974 582.833L215.313 596.491C211.898 598.539 208.928 596.866 208.928 592.803L209.064 503.416Z" fill="white"/>
</g>
<path d="M241.364 496.758C243.212 495.609 245.245 494.789 247.373 494.334C248.802 494.045 250.28 494.116 251.675 494.539C252.797 494.944 253.733 495.745 254.304 496.792C254.915 497.92 255.276 499.166 255.363 500.446C255.499 502.016 255.567 503.723 255.567 505.567C255.567 507.411 255.499 509.186 255.363 510.893C255.213 512.57 254.858 514.221 254.304 515.81C253.65 517.665 252.767 519.431 251.675 521.068C250.44 522.933 248.996 524.651 247.373 526.19C245.559 527.918 243.541 529.42 241.364 530.662C239.493 531.807 237.454 532.648 235.321 533.155C233.907 533.47 232.436 533.411 231.053 532.984C229.93 532.579 228.995 531.778 228.424 530.731C227.802 529.605 227.43 528.359 227.331 527.077C227.331 525.507 227.331 523.663 227.331 521.956C227.331 520.249 227.331 518.337 227.331 516.629C227.494 514.952 227.861 513.301 228.424 511.713C229.064 509.852 229.948 508.084 231.053 506.455C232.294 504.594 233.724 502.866 235.321 501.299C237.143 499.545 239.172 498.02 241.364 496.758ZM278.921 477.262C279.309 476.515 279.766 475.807 280.287 475.146C280.862 474.49 281.543 473.936 282.302 473.507L287.969 470.092C288.44 469.745 289.029 469.598 289.608 469.683C290.018 469.683 290.223 470.127 290.223 470.673C290.247 470.854 290.247 471.038 290.223 471.219L289.95 471.936L243.447 559.957C243.059 560.694 242.602 561.391 242.081 562.04C241.514 562.703 240.831 563.258 240.066 563.679L234.433 567.093C233.948 567.439 233.349 567.586 232.76 567.503C232.35 567.503 232.145 567.059 232.145 566.513C232.121 566.331 232.121 566.148 232.145 565.966L232.418 565.249L278.921 477.262ZM246.349 515.264C246.395 514.65 246.395 514.034 246.349 513.42V508.333C246.398 507.753 246.398 507.171 246.349 506.591C246.33 506.113 246.211 505.644 245.999 505.214C245.788 504.785 245.488 504.405 245.12 504.099C244.437 503.621 243.173 504.099 241.364 504.952C239.967 505.656 238.775 506.707 237.902 508.005C237.029 509.302 236.505 510.803 236.379 512.362C236.329 512.987 236.329 513.614 236.379 514.239C236.379 515.059 236.379 515.912 236.379 516.8C236.379 517.688 236.379 518.507 236.379 519.327C236.326 519.895 236.326 520.466 236.379 521.034C236.379 521.516 236.49 521.991 236.703 522.424C236.916 522.856 237.226 523.233 237.608 523.526C238.291 524.004 239.52 523.697 241.364 522.673C242.905 521.9 244.204 520.719 245.12 519.258C245.8 518.026 246.218 516.666 246.349 515.264ZM282.097 506.387C283.96 505.236 286.003 504.405 288.14 503.928C289.557 503.639 291.025 503.71 292.408 504.133C293.53 504.538 294.465 505.339 295.037 506.387C295.658 507.512 296.031 508.758 296.129 510.04C296.129 511.61 296.3 513.454 296.3 515.161C296.3 516.868 296.3 518.78 296.129 520.488C295.969 522.165 295.602 523.817 295.037 525.404C294.391 527.274 293.507 529.052 292.408 530.696C289.793 534.644 286.283 537.92 282.165 540.257C280.311 541.409 278.281 542.25 276.156 542.749C274.733 543.082 273.246 543.023 271.854 542.578C270.725 542.185 269.786 541.38 269.225 540.325C268.61 539.199 268.249 537.952 268.166 536.672C268.166 535.135 267.961 533.257 267.961 531.584C267.961 529.911 267.961 527.931 268.166 526.224C268.314 524.558 268.669 522.918 269.225 521.341C269.879 519.475 270.762 517.698 271.854 516.049C273.097 514.18 274.54 512.451 276.156 510.893C277.924 509.101 279.921 507.551 282.097 506.284V506.387ZM287.082 524.756C287.128 524.142 287.128 523.526 287.082 522.912V517.859C287.131 517.279 287.131 516.697 287.082 516.117C287.084 515.635 286.975 515.159 286.761 514.726C286.548 514.293 286.237 513.916 285.852 513.625C285.17 513.147 283.94 513.42 282.097 514.478C280.562 515.26 279.265 516.439 278.341 517.893C277.682 519.11 277.264 520.443 277.112 521.819C277.079 522.433 277.079 523.049 277.112 523.663C277.112 524.517 277.112 525.37 277.112 526.224C277.112 527.077 277.112 527.965 277.112 528.75C277.076 529.319 277.076 529.889 277.112 530.457C277.13 530.936 277.25 531.405 277.461 531.834C277.673 532.264 277.973 532.644 278.341 532.95C279.024 533.428 280.287 533.155 282.097 532.096C283.638 531.325 284.938 530.143 285.852 528.682C286.557 527.447 286.976 526.071 287.082 524.653V524.756Z" fill="#FAFAFA"/>
</svg>
