<svg width="49" height="51" viewBox="0 0 49 51" fill="none" xmlns="http://www.w3.org/2000/svg">
<path d="M42.7528 33.7662C41.4805 36.9633 39.4904 39.7804 36.9566 41.9715C34.4228 44.1626 31.4224 45.6608 28.2177 46.3351C25.013 47.0095 21.7017 46.8395 18.5731 45.8401C15.4446 44.8406 12.5941 43.042 10.2709 40.6016C7.94766 38.1612 6.22247 35.1533 5.24611 31.8409C4.26975 28.5284 4.07196 25.0123 4.67003 21.5998C5.26811 18.1874 6.64383 14.9826 8.67693 12.2655C10.71 9.54852 13.3386 7.40203 16.3328 6.01373" stroke="#868E96" stroke-width="4" stroke-linecap="round" stroke-linejoin="round"/>
<path d="M44.333 25.5C44.333 22.7094 43.8157 19.9461 42.8106 17.368C41.8055 14.7898 40.3323 12.4472 38.4751 10.474C36.618 8.50074 34.4132 6.93547 31.9867 5.86756C29.5602 4.79965 26.9594 4.25 24.333 4.25V25.5H44.333Z" stroke="#868E96" stroke-width="4" stroke-linecap="round" stroke-linejoin="round"/>
</svg>
