<svg width="49" height="51" viewBox="0 0 49 51" fill="none" xmlns="http://www.w3.org/2000/svg">
<path d="M24.667 46.75C35.7127 46.75 44.667 37.236 44.667 25.5C44.667 13.7639 35.7127 4.25 24.667 4.25C13.6213 4.25 4.66699 13.7639 4.66699 25.5C4.66699 37.236 13.6213 46.75 24.667 46.75Z" stroke="#868E96" stroke-width="4" stroke-linecap="round" stroke-linejoin="round"/>
<path d="M24.667 38.25C31.2944 38.25 36.667 32.5416 36.667 25.5C36.667 18.4584 31.2944 12.75 24.667 12.75C18.0396 12.75 12.667 18.4584 12.667 25.5C12.667 32.5416 18.0396 38.25 24.667 38.25Z" stroke="#868E96" stroke-width="4" stroke-linecap="round" stroke-linejoin="round"/>
<path d="M24.667 29.75C26.8761 29.75 28.667 27.8472 28.667 25.5C28.667 23.1528 26.8761 21.25 24.667 21.25C22.4579 21.25 20.667 23.1528 20.667 25.5C20.667 27.8472 22.4579 29.75 24.667 29.75Z" stroke="#868E96" stroke-width="4" stroke-linecap="round" stroke-linejoin="round"/>
</svg>
